<?xml version="1.0"?>
<svg width="50" height="50" xmlns="http://www.w3.org/2000/svg" xmlns:svg="http://www.w3.org/2000/svg">
 <g class="layer">
  <title>Layer 1</title>
  <path d="m41.94,8.63c-0.67,0.02 -1.28,0.37 -1.63,0.93l-18.81,28.78l-12.19,-10.53c-0.52,-0.54 -1.31,-0.74 -2.03,-0.52c-0.72,0.23 -1.25,0.84 -1.38,1.58c-0.12,0.74 0.18,1.49 0.79,1.94l13.94,12.07c0.43,0.37 1.01,0.53 1.58,0.45c0.57,-0.09 1.07,-0.41 1.38,-0.89l20.1,-30.69c0.43,-0.63 0.46,-1.44 0.09,-2.11c-0.37,-0.66 -1.08,-1.05 -1.84,-1.01z" fill="#00f91d" id="svg_1"/>
 </g>
</svg>