<?xml version="1.0"?>
<svg width="460.775" height="460.775" xmlns="http://www.w3.org/2000/svg" xmlns:svg="http://www.w3.org/2000/svg" version="1.1" xml:space="preserve">
 <g class="layer">
  <title>Layer 1</title>
  <path d="m286.08,230.4l171.14,-171.13c6.07,-6.08 6.07,-15.91 0,-21.99l-32.71,-32.72c-2.91,-2.91 -6.86,-4.55 -10.99,-4.55c-4.13,0 -8.08,1.64 -10.99,4.55l-171.14,171.14l-171.14,-171.14c-2.91,-2.91 -6.87,-4.55 -10.99,-4.55c-4.13,0 -8.08,1.64 -10.99,4.55l-32.71,32.72c-6.08,6.08 -6.08,15.91 0,21.99l171.14,171.13l-171.13,171.1c-6.07,6.08 -6.07,15.92 0,21.99l32.71,32.72c2.91,2.91 6.87,4.55 11,4.55c4.12,0 8.08,-1.64 10.99,-4.55l171.12,-171.12l171.11,171.12c2.92,2.91 6.87,4.55 11,4.55c4.13,0 8.08,-1.64 10.99,-4.55l32.71,-32.72c6.07,-6.07 6.07,-15.91 0,-21.99l-171.12,-171.1z" fill="#ff0000" id="svg_1"/>
 </g>
</svg>